<mxfile host="app.diagrams.net" modified="2020-04-05T09:10:33.607Z" agent="5.0 (Windows NT 10.0; Win64; x64) AppleWebKit/537.36 (KHTML, like Gecko) Chrome/80.0.3987.149 Safari/537.36" etag="7qL6Zrm-Rm-YyPtsTOpT" version="12.9.7" type="github">
  <diagram id="Y-MME4wEh_TQheLzdc7U" name="Page-1">
    <mxGraphModel dx="1038" dy="580" grid="1" gridSize="10" guides="1" tooltips="1" connect="1" arrows="1" fold="1" page="1" pageScale="1" pageWidth="827" pageHeight="1169" math="0" shadow="0">
      <root>
        <mxCell id="0" />
        <mxCell id="1" parent="0" />
        <mxCell id="BR8h9TsFV55huRSXZ1TJ-1" value="" style="rounded=0;whiteSpace=wrap;html=1;dashed=1;fillColor=none;strokeWidth=2;strokeColor=#00994D;" vertex="1" parent="1">
          <mxGeometry x="191" y="191" width="169" height="270" as="geometry" />
        </mxCell>
        <mxCell id="BR8h9TsFV55huRSXZ1TJ-2" value="" style="rounded=0;whiteSpace=wrap;html=1;dashed=1;fillColor=none;strokeWidth=2;strokeColor=#009900;" vertex="1" parent="1">
          <mxGeometry x="186" y="70" width="564" height="70" as="geometry" />
        </mxCell>
        <mxCell id="BR8h9TsFV55huRSXZ1TJ-3" value="&lt;font color=&quot;#ffffff&quot; style=&quot;font-size: 15px&quot;&gt;Segment[0]&lt;/font&gt;" style="rounded=0;whiteSpace=wrap;html=1;strokeColor=none;strokeWidth=2;fillColor=#006633;" vertex="1" parent="1">
          <mxGeometry x="205" y="90" width="85" height="30" as="geometry" />
        </mxCell>
        <mxCell id="BR8h9TsFV55huRSXZ1TJ-4" value="&lt;font color=&quot;#ffffff&quot; style=&quot;font-size: 15px&quot;&gt;Segment[1]&lt;/font&gt;" style="rounded=0;whiteSpace=wrap;html=1;strokeColor=none;strokeWidth=2;fillColor=#006633;" vertex="1" parent="1">
          <mxGeometry x="310" y="90" width="85" height="30" as="geometry" />
        </mxCell>
        <mxCell id="BR8h9TsFV55huRSXZ1TJ-5" value="&lt;font color=&quot;#ffffff&quot; style=&quot;font-size: 15px&quot;&gt;Segment[2]&lt;/font&gt;" style="rounded=0;whiteSpace=wrap;html=1;strokeColor=none;strokeWidth=2;fillColor=#006633;" vertex="1" parent="1">
          <mxGeometry x="420" y="90" width="85" height="30" as="geometry" />
        </mxCell>
        <mxCell id="BR8h9TsFV55huRSXZ1TJ-6" value="&lt;font color=&quot;#ffffff&quot; style=&quot;font-size: 15px&quot;&gt;Segment[3]&lt;/font&gt;" style="rounded=0;whiteSpace=wrap;html=1;strokeColor=none;strokeWidth=2;fillColor=#006633;" vertex="1" parent="1">
          <mxGeometry x="540" y="90" width="85" height="30" as="geometry" />
        </mxCell>
        <mxCell id="BR8h9TsFV55huRSXZ1TJ-7" value="" style="rounded=0;whiteSpace=wrap;html=1;dashed=1;fillColor=none;strokeWidth=2;strokeColor=#009900;" vertex="1" parent="1">
          <mxGeometry x="191" y="191" width="559" height="70" as="geometry" />
        </mxCell>
        <mxCell id="BR8h9TsFV55huRSXZ1TJ-8" value="" style="endArrow=classic;html=1;" edge="1" parent="1" source="BR8h9TsFV55huRSXZ1TJ-3">
          <mxGeometry width="50" height="50" relative="1" as="geometry">
            <mxPoint x="430" y="300" as="sourcePoint" />
            <mxPoint x="247" y="180" as="targetPoint" />
          </mxGeometry>
        </mxCell>
        <mxCell id="BR8h9TsFV55huRSXZ1TJ-9" value="&lt;pre style=&quot;font-family: &amp;#34;jetbrains mono&amp;#34; ; font-size: 9.8pt&quot;&gt;&lt;font color=&quot;#ffffff&quot;&gt;HashEntry&amp;lt;K,V&amp;gt;[0]&lt;/font&gt;&lt;/pre&gt;" style="rounded=0;whiteSpace=wrap;html=1;strokeColor=none;strokeWidth=2;fillColor=#006633;" vertex="1" parent="1">
          <mxGeometry x="205" y="211" width="144" height="30" as="geometry" />
        </mxCell>
        <mxCell id="BR8h9TsFV55huRSXZ1TJ-10" value="&lt;pre style=&quot;font-family: &amp;#34;jetbrains mono&amp;#34; ; font-size: 9.8pt&quot;&gt;&lt;font color=&quot;#ffffff&quot;&gt;HashEntry&amp;lt;K,V&amp;gt;[1]&lt;/font&gt;&lt;/pre&gt;" style="rounded=0;whiteSpace=wrap;html=1;strokeColor=none;strokeWidth=2;fillColor=#006633;" vertex="1" parent="1">
          <mxGeometry x="369" y="211" width="144" height="30" as="geometry" />
        </mxCell>
        <mxCell id="BR8h9TsFV55huRSXZ1TJ-11" value="&lt;pre style=&quot;font-family: &amp;#34;jetbrains mono&amp;#34; ; font-size: 9.8pt&quot;&gt;&lt;font color=&quot;#ffffff&quot;&gt;HashEntry&amp;lt;K,V&amp;gt;[2]&lt;/font&gt;&lt;/pre&gt;" style="rounded=0;whiteSpace=wrap;html=1;strokeColor=none;strokeWidth=2;fillColor=#000000;" vertex="1" parent="1">
          <mxGeometry x="523" y="211" width="144" height="30" as="geometry" />
        </mxCell>
        <mxCell id="BR8h9TsFV55huRSXZ1TJ-12" value="&lt;pre style=&quot;font-family: &amp;#34;jetbrains mono&amp;#34; ; font-size: 9.8pt&quot;&gt;&lt;font color=&quot;#ffffff&quot;&gt;....&lt;/font&gt;&lt;/pre&gt;" style="rounded=0;whiteSpace=wrap;html=1;strokeColor=none;strokeWidth=2;fillColor=#006633;" vertex="1" parent="1">
          <mxGeometry x="680" y="211" width="60" height="30" as="geometry" />
        </mxCell>
        <mxCell id="BR8h9TsFV55huRSXZ1TJ-13" value="&lt;pre style=&quot;font-family: &amp;#34;jetbrains mono&amp;#34; ; font-size: 9.8pt&quot;&gt;&lt;font color=&quot;#ffffff&quot;&gt;....&lt;/font&gt;&lt;/pre&gt;" style="rounded=0;whiteSpace=wrap;html=1;strokeColor=none;strokeWidth=2;fillColor=#006633;" vertex="1" parent="1">
          <mxGeometry x="650" y="90" width="80" height="30" as="geometry" />
        </mxCell>
        <mxCell id="BR8h9TsFV55huRSXZ1TJ-14" value="&lt;pre style=&quot;font-family: &amp;#34;jetbrains mono&amp;#34; ; font-size: 9.8pt&quot;&gt;&lt;font color=&quot;#ffffff&quot;&gt;HashEntry&amp;lt;K,V&amp;gt;&lt;/font&gt;&lt;/pre&gt;" style="rounded=0;whiteSpace=wrap;html=1;strokeColor=none;strokeWidth=2;fillColor=#006633;" vertex="1" parent="1">
          <mxGeometry x="205" y="281" width="144" height="30" as="geometry" />
        </mxCell>
        <mxCell id="BR8h9TsFV55huRSXZ1TJ-15" value="&lt;pre style=&quot;font-family: &amp;#34;jetbrains mono&amp;#34; ; font-size: 9.8pt&quot;&gt;&lt;font color=&quot;#ffffff&quot;&gt;HashEntry&amp;lt;K,V&amp;gt;&lt;/font&gt;&lt;/pre&gt;" style="rounded=0;whiteSpace=wrap;html=1;strokeColor=none;strokeWidth=2;fillColor=#006633;" vertex="1" parent="1">
          <mxGeometry x="205" y="341" width="144" height="30" as="geometry" />
        </mxCell>
        <mxCell id="BR8h9TsFV55huRSXZ1TJ-16" value="&lt;pre style=&quot;font-family: &amp;#34;jetbrains mono&amp;#34; ; font-size: 9.8pt&quot;&gt;&lt;font color=&quot;#ffffff&quot;&gt;HashEntry&amp;lt;K,V&amp;gt;&lt;/font&gt;&lt;/pre&gt;" style="rounded=0;whiteSpace=wrap;html=1;strokeColor=none;strokeWidth=2;fillColor=#006633;" vertex="1" parent="1">
          <mxGeometry x="205" y="401" width="144" height="30" as="geometry" />
        </mxCell>
        <mxCell id="BR8h9TsFV55huRSXZ1TJ-17" value="" style="shape=curlyBracket;whiteSpace=wrap;html=1;rounded=1;strokeColor=#000000;strokeWidth=2;fillColor=#003366;" vertex="1" parent="1">
          <mxGeometry x="158" y="190" width="20" height="270" as="geometry" />
        </mxCell>
        <mxCell id="BR8h9TsFV55huRSXZ1TJ-18" value="&lt;span style=&quot;font-weight: normal&quot;&gt;&lt;font style=&quot;font-size: 16px&quot;&gt;冲突链表&lt;/font&gt;&lt;/span&gt;" style="text;strokeColor=none;fillColor=none;html=1;fontSize=24;fontStyle=1;verticalAlign=middle;align=center;" vertex="1" parent="1">
          <mxGeometry x="60" y="301" width="100" height="40" as="geometry" />
        </mxCell>
        <mxCell id="BR8h9TsFV55huRSXZ1TJ-19" value="&lt;span style=&quot;font-size: 16px ; font-weight: 400&quot;&gt;不可扩容&lt;br&gt;Segmeng&amp;nbsp;段&lt;/span&gt;" style="text;strokeColor=none;fillColor=none;html=1;fontSize=24;fontStyle=1;verticalAlign=middle;align=center;" vertex="1" parent="1">
          <mxGeometry x="60" y="85" width="100" height="40" as="geometry" />
        </mxCell>
        <mxCell id="BR8h9TsFV55huRSXZ1TJ-20" value="" style="shape=curlyBracket;whiteSpace=wrap;html=1;rounded=1;strokeColor=#000000;strokeWidth=2;fillColor=#000000;" vertex="1" parent="1">
          <mxGeometry x="158" y="70" width="20" height="70" as="geometry" />
        </mxCell>
        <mxCell id="BR8h9TsFV55huRSXZ1TJ-21" value="" style="rounded=0;comic=1;strokeWidth=2;endArrow=blockThin;html=1;fontFamily=Comic Sans MS;fontStyle=1;entryX=0.5;entryY=0;entryDx=0;entryDy=0;" edge="1" parent="1" source="BR8h9TsFV55huRSXZ1TJ-14" target="BR8h9TsFV55huRSXZ1TJ-15">
          <mxGeometry width="50" height="50" relative="1" as="geometry">
            <mxPoint x="340" y="311" as="sourcePoint" />
            <mxPoint x="270" y="331" as="targetPoint" />
          </mxGeometry>
        </mxCell>
        <mxCell id="BR8h9TsFV55huRSXZ1TJ-22" value="&amp;nbsp; &amp;nbsp; &amp;nbsp; &amp;nbsp; &amp;nbsp;next" style="text;html=1;align=center;verticalAlign=middle;resizable=0;points=[];" vertex="1" connectable="0" parent="BR8h9TsFV55huRSXZ1TJ-21">
          <mxGeometry x="-0.5371" y="1" relative="1" as="geometry">
            <mxPoint y="2" as="offset" />
          </mxGeometry>
        </mxCell>
        <mxCell id="BR8h9TsFV55huRSXZ1TJ-23" value="" style="rounded=0;comic=1;strokeWidth=2;endArrow=blockThin;html=1;fontFamily=Comic Sans MS;fontStyle=1;entryX=0.5;entryY=0;entryDx=0;entryDy=0;exitX=0.5;exitY=1;exitDx=0;exitDy=0;" edge="1" parent="1" source="BR8h9TsFV55huRSXZ1TJ-15" target="BR8h9TsFV55huRSXZ1TJ-16">
          <mxGeometry width="50" height="50" relative="1" as="geometry">
            <mxPoint x="340" y="311" as="sourcePoint" />
            <mxPoint x="270" y="331" as="targetPoint" />
          </mxGeometry>
        </mxCell>
        <mxCell id="BR8h9TsFV55huRSXZ1TJ-24" value="&amp;nbsp; &amp;nbsp; &amp;nbsp; &amp;nbsp; &amp;nbsp; &amp;nbsp;next" style="text;html=1;align=center;verticalAlign=middle;resizable=0;points=[];" vertex="1" connectable="0" parent="BR8h9TsFV55huRSXZ1TJ-23">
          <mxGeometry x="-0.3848" y="-2" relative="1" as="geometry">
            <mxPoint as="offset" />
          </mxGeometry>
        </mxCell>
        <mxCell id="BR8h9TsFV55huRSXZ1TJ-25" value="" style="rounded=0;comic=1;strokeWidth=2;endArrow=blockThin;html=1;fontFamily=Comic Sans MS;fontStyle=1;exitX=0.5;exitY=1;exitDx=0;exitDy=0;" edge="1" parent="1" source="BR8h9TsFV55huRSXZ1TJ-9" target="BR8h9TsFV55huRSXZ1TJ-14">
          <mxGeometry width="50" height="50" relative="1" as="geometry">
            <mxPoint x="340" y="311" as="sourcePoint" />
            <mxPoint x="390" y="261" as="targetPoint" />
          </mxGeometry>
        </mxCell>
        <mxCell id="BR8h9TsFV55huRSXZ1TJ-26" value="next" style="text;html=1;align=center;verticalAlign=middle;resizable=0;points=[];" vertex="1" connectable="0" parent="BR8h9TsFV55huRSXZ1TJ-25">
          <mxGeometry x="-0.5529" relative="1" as="geometry">
            <mxPoint x="13" as="offset" />
          </mxGeometry>
        </mxCell>
        <mxCell id="BR8h9TsFV55huRSXZ1TJ-27" value="" style="shape=curlyBracket;whiteSpace=wrap;html=1;rounded=1;strokeColor=#000000;strokeWidth=2;fillColor=#000000;direction=south;" vertex="1" parent="1">
          <mxGeometry x="190" y="167" width="560" height="20" as="geometry" />
        </mxCell>
        <mxCell id="BR8h9TsFV55huRSXZ1TJ-28" value="&lt;span style=&quot;font-weight: 400&quot;&gt;&lt;font style=&quot;font-size: 14px&quot;&gt;可扩容，HashEntity&amp;nbsp;数组&lt;/font&gt;&lt;/span&gt;" style="text;strokeColor=none;fillColor=none;html=1;fontSize=24;fontStyle=1;verticalAlign=middle;align=center;" vertex="1" parent="1">
          <mxGeometry x="369" y="130" width="201" height="50" as="geometry" />
        </mxCell>
        <mxCell id="BR8h9TsFV55huRSXZ1TJ-29" value="ConcurrentHashMap Java8 存储结构" style="text;strokeColor=none;fillColor=none;html=1;fontSize=22;fontStyle=1;verticalAlign=middle;align=center;" vertex="1" parent="1">
          <mxGeometry x="498" y="410" width="127" height="40" as="geometry" />
        </mxCell>
        <UserObject label="&lt;font style=&quot;font-size: 16px&quot;&gt;https://www.wdbyte.com&lt;/font&gt;" placeholders="1" name="Variable" id="BR8h9TsFV55huRSXZ1TJ-30">
          <mxCell style="text;html=1;strokeColor=none;fillColor=none;align=center;verticalAlign=middle;whiteSpace=wrap;overflow=hidden;" vertex="1" parent="1">
            <mxGeometry x="560" y="441" width="190" height="29" as="geometry" />
          </mxCell>
        </UserObject>
        <mxCell id="BR8h9TsFV55huRSXZ1TJ-31" value="&lt;pre style=&quot;font-family: &amp;#34;jetbrains mono&amp;#34; ; font-size: 9.8pt&quot;&gt;&lt;font color=&quot;#ffffff&quot;&gt;HashEntry&amp;lt;K,V&amp;gt;&lt;/font&gt;&lt;/pre&gt;" style="rounded=0;whiteSpace=wrap;html=1;strokeColor=none;strokeWidth=2;fillColor=#FF0000;" vertex="1" parent="1">
          <mxGeometry x="440" y="281" width="144" height="30" as="geometry" />
        </mxCell>
        <mxCell id="BR8h9TsFV55huRSXZ1TJ-32" value="&lt;pre style=&quot;font-family: &amp;#34;jetbrains mono&amp;#34; ; font-size: 9.8pt&quot;&gt;&lt;font color=&quot;#ffffff&quot;&gt;HashEntry&amp;lt;K,V&amp;gt;&lt;/font&gt;&lt;/pre&gt;" style="rounded=0;whiteSpace=wrap;html=1;strokeColor=none;strokeWidth=2;fillColor=#33001A;" vertex="1" parent="1">
          <mxGeometry x="606" y="281" width="144" height="30" as="geometry" />
        </mxCell>
        <mxCell id="BR8h9TsFV55huRSXZ1TJ-33" value="" style="endArrow=classic;html=1;exitX=0.5;exitY=1;exitDx=0;exitDy=0;entryX=0.5;entryY=0;entryDx=0;entryDy=0;" edge="1" parent="1" source="BR8h9TsFV55huRSXZ1TJ-11" target="BR8h9TsFV55huRSXZ1TJ-31">
          <mxGeometry width="50" height="50" relative="1" as="geometry">
            <mxPoint x="390" y="320" as="sourcePoint" />
            <mxPoint x="440" y="270" as="targetPoint" />
          </mxGeometry>
        </mxCell>
        <mxCell id="BR8h9TsFV55huRSXZ1TJ-34" value="" style="endArrow=classic;html=1;exitX=0.5;exitY=1;exitDx=0;exitDy=0;entryX=0.5;entryY=0;entryDx=0;entryDy=0;" edge="1" parent="1" source="BR8h9TsFV55huRSXZ1TJ-11" target="BR8h9TsFV55huRSXZ1TJ-32">
          <mxGeometry width="50" height="50" relative="1" as="geometry">
            <mxPoint x="390" y="320" as="sourcePoint" />
            <mxPoint x="440" y="270" as="targetPoint" />
          </mxGeometry>
        </mxCell>
        <mxCell id="BR8h9TsFV55huRSXZ1TJ-35" value="&lt;pre style=&quot;font-family: &amp;#34;jetbrains mono&amp;#34; ; font-size: 9.8pt&quot;&gt;&lt;font color=&quot;#ffffff&quot;&gt;HashEntry&amp;lt;K,V&amp;gt;&lt;/font&gt;&lt;/pre&gt;" style="rounded=0;whiteSpace=wrap;html=1;strokeColor=none;strokeWidth=2;fillColor=#33001A;" vertex="1" parent="1">
          <mxGeometry x="369" y="341" width="144" height="30" as="geometry" />
        </mxCell>
        <mxCell id="BR8h9TsFV55huRSXZ1TJ-36" value="&lt;pre style=&quot;font-family: &amp;#34;jetbrains mono&amp;#34; ; font-size: 9.8pt&quot;&gt;&lt;font color=&quot;#ffffff&quot;&gt;HashEntry&amp;lt;K,V&amp;gt;&lt;/font&gt;&lt;/pre&gt;" style="rounded=0;whiteSpace=wrap;html=1;strokeColor=none;strokeWidth=2;fillColor=#33001A;" vertex="1" parent="1">
          <mxGeometry x="530" y="341" width="144" height="30" as="geometry" />
        </mxCell>
        <mxCell id="BR8h9TsFV55huRSXZ1TJ-37" value="" style="endArrow=classic;html=1;fontSize=22;exitX=0.5;exitY=1;exitDx=0;exitDy=0;entryX=0.5;entryY=0;entryDx=0;entryDy=0;" edge="1" parent="1" source="BR8h9TsFV55huRSXZ1TJ-31" target="BR8h9TsFV55huRSXZ1TJ-35">
          <mxGeometry width="50" height="50" relative="1" as="geometry">
            <mxPoint x="390" y="320" as="sourcePoint" />
            <mxPoint x="440" y="270" as="targetPoint" />
          </mxGeometry>
        </mxCell>
        <mxCell id="BR8h9TsFV55huRSXZ1TJ-38" value="" style="endArrow=classic;html=1;fontSize=22;exitX=0.5;exitY=1;exitDx=0;exitDy=0;entryX=0.5;entryY=0;entryDx=0;entryDy=0;" edge="1" parent="1" source="BR8h9TsFV55huRSXZ1TJ-31" target="BR8h9TsFV55huRSXZ1TJ-36">
          <mxGeometry width="50" height="50" relative="1" as="geometry">
            <mxPoint x="390" y="320" as="sourcePoint" />
            <mxPoint x="440" y="270" as="targetPoint" />
          </mxGeometry>
        </mxCell>
        <mxCell id="BR8h9TsFV55huRSXZ1TJ-39" value="" style="shape=curlyBracket;whiteSpace=wrap;html=1;rounded=1;fillColor=#33001A;fontSize=22;direction=north;" vertex="1" parent="1">
          <mxGeometry x="370" y="380" width="380" height="20" as="geometry" />
        </mxCell>
        <mxCell id="BR8h9TsFV55huRSXZ1TJ-40" value="&lt;pre style=&quot;font-family: &amp;#34;jetbrains mono&amp;#34; ; font-size: 9.8pt&quot;&gt;&lt;font color=&quot;#ffffff&quot;&gt;....&lt;/font&gt;&lt;/pre&gt;" style="rounded=0;whiteSpace=wrap;html=1;strokeColor=none;strokeWidth=2;fillColor=#CC0000;" vertex="1" parent="1">
          <mxGeometry x="690" y="341" width="60" height="30" as="geometry" />
        </mxCell>
        <mxCell id="BR8h9TsFV55huRSXZ1TJ-41" value="&lt;span style=&quot;font-size: 16px ; font-weight: 400&quot;&gt;红黑树，示意图，忽略个数&lt;/span&gt;" style="text;strokeColor=none;fillColor=none;html=1;fontSize=24;fontStyle=1;verticalAlign=middle;align=center;" vertex="1" parent="1">
          <mxGeometry x="510" y="380" width="100" height="40" as="geometry" />
        </mxCell>
      </root>
    </mxGraphModel>
  </diagram>
</mxfile>
